<?xml version="1.0" encoding="UTF-8" standalone="no"?>
<!-- Created with Inkscape (http://www.inkscape.org/) -->

<svg
   id="svg2"
   sodipodi:docname="SteelBarrel.svg"
   viewBox="0 0 483.7126 745.00957"
   version="1.1"
   inkscape:version="1.1.1 (3bf5ae0d25, 2021-09-20)"
   width="483.71262"
   height="745.00958"
   xmlns:inkscape="http://www.inkscape.org/namespaces/inkscape"
   xmlns:sodipodi="http://sodipodi.sourceforge.net/DTD/sodipodi-0.dtd"
   xmlns:xlink="http://www.w3.org/1999/xlink"
   xmlns="http://www.w3.org/2000/svg"
   xmlns:svg="http://www.w3.org/2000/svg"
   xmlns:rdf="http://www.w3.org/1999/02/22-rdf-syntax-ns#"
   xmlns:cc="http://creativecommons.org/ns#"
   xmlns:dc="http://purl.org/dc/elements/1.1/">
  <defs
     id="defs4">
    <linearGradient
       id="linearGradient3017"
       inkscape:collect="always">
      <stop
         id="stop3019"
         style="stop-color:#666666"
         offset="0" />
      <stop
         id="stop3021"
         style="stop-color:#666666;stop-opacity:0"
         offset="1" />
    </linearGradient>
    <radialGradient
       id="radialGradient3811"
       gradientUnits="userSpaceOnUse"
       cy="502.38"
       cx="427.14001"
       gradientTransform="matrix(1.4421,0.0022603,-0.0034949,2.186,-186.39,-596.77)"
       r="207.14"
       inkscape:collect="always">
      <stop
         id="stop3807"
         style="stop-color:#4d4d4d"
         offset="0" />
      <stop
         id="stop3809"
         style="stop-color:#4d4d4d;stop-opacity:0"
         offset="1" />
    </radialGradient>
    <radialGradient
       id="radialGradient3011"
       gradientUnits="userSpaceOnUse"
       cy="502.38"
       cx="427.14001"
       gradientTransform="matrix(0.35422,0.0032418,-0.03602,5.1932,209.32,-2113.6)"
       r="207.14"
       inkscape:collect="always">
      <stop
         id="stop3007"
         style="stop-color:#808080"
         offset="0" />
      <stop
         id="stop3009"
         style="stop-color:#808080;stop-opacity:0"
         offset="1" />
    </radialGradient>
    <radialGradient
       id="radialGradient3023"
       xlink:href="#linearGradient3017"
       gradientUnits="userSpaceOnUse"
       cy="262.12"
       cx="565.96002"
       gradientTransform="matrix(-0.71034,0.045216,-0.025687,-0.38244,979.17,292.54)"
       r="215.71001"
       inkscape:collect="always" />
    <radialGradient
       id="radialGradient3101"
       gradientUnits="userSpaceOnUse"
       cy="161.07001"
       cx="566.19"
       gradientTransform="matrix(2.4751,0.063845,-0.02578,0.99943,-831.03,-36.056)"
       r="26.174"
       inkscape:collect="always">
      <stop
         id="stop3097"
         style="stop-color:#4d4d4d"
         offset="0" />
      <stop
         id="stop3099"
         style="stop-color:#4d4d4d;stop-opacity:0"
         offset="1" />
    </radialGradient>
    <radialGradient
       id="radialGradient3027"
       xlink:href="#linearGradient3017"
       gradientUnits="userSpaceOnUse"
       cy="262.12"
       cx="565.96002"
       gradientTransform="matrix(-0.72115,0.045216,-0.026077,-0.38244,990.85,292.54)"
       r="215.71001"
       inkscape:collect="always" />
  </defs>
  <sodipodi:namedview
     id="base"
     bordercolor="#666666"
     inkscape:pageshadow="2"
     inkscape:window-y="32"
     pagecolor="#ffffff"
     inkscape:window-height="699"
     inkscape:window-maximized="1"
     inkscape:zoom="0.27481473"
     inkscape:window-x="0"
     showgrid="false"
     borderopacity="1.0"
     inkscape:current-layer="layer1"
     inkscape:cx="38.207559"
     inkscape:cy="640.43147"
     inkscape:window-width="1366"
     inkscape:pageopacity="0.0"
     inkscape:document-units="px"
     inkscape:pagecheckerboard="0" />
  <g
     id="layer1"
     inkscape:label="Layer 1"
     inkscape:groupmode="layer"
     transform="translate(-162.19,-91.72733)">
    <path
       id="rect3774"
       sodipodi:nodetypes="ccccc"
       style="fill:#1a1a1a;stroke:#000000;stroke-width:3"
       inkscape:connector-curvature="0"
       d="M 220,169.51 H 634.29 V 800.94 C 512.2,839.36 379.99,853.47 220,800.93 Z" />
    <path
       id="path3803"
       d="m 218.62,169.51 h 418.42 v 631.43 c -123.3,38.425 -256.84,52.536 -418.42,0 z"
       sodipodi:nodetypes="ccccc"
       style="fill:url(#radialGradient3811)"
       inkscape:connector-curvature="0" />
    <path
       id="path3003"
       d="m 162.19,163.79 h 360.66 v 631.43 c -106.28,38.425 -221.39,52.536 -360.66,0 z"
       sodipodi:nodetypes="ccccc"
       style="fill:url(#radialGradient3011)"
       inkscape:connector-curvature="0" />
    <path
       id="path3013"
       style="fill:#4d4d4d"
       transform="matrix(0.97351,0,0,1,11.315,-33.98)"
       cx="427.14285"
       cy="195.21933"
       rx="215.71428"
       ry="60" />
    <path
       id="path3015"
       style="fill:url(#radialGradient3023)"
       transform="matrix(0.96712,0,0,1,16.798,-35.357)"
       cx="427.14285"
       cy="195.21933"
       rx="215.71428"
       ry="60" />
    <path
       id="path3032"
       d="m 228.01,311.24 c 139.15,32.086 278.18,26.129 408.46,-6.8879 5.8022,0.69562 8.945,8.5748 -1.3776,17.654 -156.6,43.301 -290.51,27.747 -411.21,0 -20.802,-11.655 6.029,-21.264 4.1328,-10.766 z"
       sodipodi:nodetypes="ccccc"
       style="fill:#666666"
       inkscape:connector-curvature="0" />
    <path
       id="rect3025"
       sodipodi:nodetypes="ccccc"
       style="fill:#808080"
       inkscape:connector-curvature="0"
       d="m 218.57,297.07 c 145.2,34.227 279.08,36.597 415.02,1.3776 8.4265,-4.002 18.879,-0.27311 6.8879,11.852 -158.43,46.357 -296.03,29.251 -420.53,4.1328 -21.706,-12.433 0.60116,-28.56 -1.3776,-17.362 z" />
    <g
       id="g3056"
       transform="translate(2.7552,-221.79)">
      <path
         id="path3058"
         d="m 225.25,688.7 c 139.15,32.086 278.18,26.129 408.46,-6.8879 5.8022,0.69562 8.945,8.5748 -1.3776,17.654 -156.6,43.301 -290.51,27.747 -411.21,0 -20.802,-11.655 6.029,-21.264 4.1328,-10.766 z"
         sodipodi:nodetypes="ccccc"
         style="fill:#666666"
         inkscape:connector-curvature="0" />
      <path
         id="path3060"
         sodipodi:nodetypes="ccccc"
         style="fill:#808080"
         inkscape:connector-curvature="0"
         d="m 215.82,674.52 c 145.2,34.227 279.08,36.597 415.02,1.3776 8.4265,-4.002 18.879,-0.27311 6.8879,11.852 -158.43,46.357 -296.03,29.251 -420.53,4.1328 -21.706,-12.433 0.60116,-28.56 -1.3776,-17.362 z" />
    </g>
    <g
       id="g3062"
       transform="translate(2.7552,-39.95)">
      <path
         id="path3064"
         sodipodi:nodetypes="ccccc"
         style="fill:#666666"
         inkscape:connector-curvature="0"
         d="m 225.25,688.7 c 139.15,32.086 278.18,26.129 408.46,-6.8879 5.8022,0.69562 8.945,8.5748 -1.3776,17.654 -156.6,43.301 -290.51,27.747 -411.21,0 -20.802,-11.655 6.029,-21.264 4.1328,-10.766 z" />
      <path
         id="path3066"
         d="m 215.82,674.52 c 145.2,34.227 279.08,36.597 415.02,1.3776 8.4265,-4.002 18.879,-0.27311 6.8879,11.852 -158.43,46.357 -296.03,29.251 -420.53,4.1328 -21.706,-12.433 0.60116,-28.56 -1.3776,-17.362 z"
         sodipodi:nodetypes="ccccc"
         style="fill:#808080"
         inkscape:connector-curvature="0" />
    </g>
    <rect
       id="rect3068"
       style="fill:#000000"
       height="0"
       width="370.57001"
       y="867.77002"
       x="170.82001" />
    <path
       id="rect3073"
       sodipodi:nodetypes="ccccc"
       style="fill:#000000"
       inkscape:connector-curvature="0"
       d="m 219.04,797.51 c 142.21,39.026 281.14,41.773 416.03,0 v 8.2655 c -138.68,36.313 -277.35,37.156 -416.03,0 z" />
    <path
       id="path3103"
       style="fill:url(#radialGradient3027);stroke:#1f1f1f;stroke-width:16.27"
       transform="matrix(0.95263,0,0,1,19.862,-35.357)"
       cx="427.14285"
       cy="195.21933"
       rx="215.71428"
       ry="60" />
    <path
       id="path3091"
       style="fill:#000000"
       cx="566.18689"
       cy="161.06557"
       rx="26.174089"
       ry="16.531004" />
    <path
       id="path3105"
       d="m 219.04,185.86 c 142.21,39.026 281.14,41.773 416.03,0 v 8.2655 c -138.68,36.313 -277.35,37.156 -416.03,0 z"
       sodipodi:nodetypes="ccccc"
       style="fill:#000000"
       inkscape:connector-curvature="0" />
    <path
       id="path3093"
       style="fill:url(#radialGradient3101)"
       cx="566.18689"
       cy="161.06557"
       rx="26.174089"
       ry="16.531004" />
  </g>
  <metadata
     id="metadata1411">
    <rdf:RDF>
      <cc:Work>
        <dc:format>image/svg+xml</dc:format>
        <dc:type
           rdf:resource="http://purl.org/dc/dcmitype/StillImage" />
        <cc:license
           rdf:resource="http://creativecommons.org/licenses/publicdomain/" />
        <dc:publisher>
          <cc:Agent
             rdf:about="http://openclipart.org/">
            <dc:title>Openclipart</dc:title>
          </cc:Agent>
        </dc:publisher>
      </cc:Work>
      <cc:License
         rdf:about="http://creativecommons.org/licenses/publicdomain/">
        <cc:permits
           rdf:resource="http://creativecommons.org/ns#Reproduction" />
        <cc:permits
           rdf:resource="http://creativecommons.org/ns#Distribution" />
        <cc:permits
           rdf:resource="http://creativecommons.org/ns#DerivativeWorks" />
      </cc:License>
    </rdf:RDF>
  </metadata>
</svg>
